<?xml version="1.0" encoding="UTF-8"?>
<svg version="1.1" xmlns="http://www.w3.org/2000/svg" width="512" height="512">
<path d="M0 0 C1.02609375 0.825 2.0521875 1.65 3.109375 2.5 C17.01487092 13.80287438 29.40848924 26.55053591 40 41 C40.63035156 41.84691406 41.26070313 42.69382812 41.91015625 43.56640625 C75.98408512 90.68001633 89.3779258 149.72998892 80.50048828 207.015625 C74.31992157 243.86989208 59.69953862 278.92155586 36 308 C35.56397461 308.53608887 35.12794922 309.07217773 34.67871094 309.62451172 C-2.55373493 355.0718996 -55.31558482 383.94087798 -113.8125 390.25 C-172.46059069 395.75822404 -230.92221496 378.2094265 -276.35351562 340.69921875 C-289.64865276 329.42494246 -301.68647385 317.05436444 -312 303 C-312.59554687 302.21109375 -313.19109375 301.4221875 -313.8046875 300.609375 C-346.51162476 255.85251348 -361.51524043 197.51251583 -353.39794922 142.52441406 C-347.2170757 103.31568265 -332.95842656 67.11137199 -308 36 C-307.195625 34.99195312 -306.39125 33.98390625 -305.5625 32.9453125 C-294.23391518 19.02684682 -281.47089405 6.607219 -267 -4 C-265.72962891 -4.94552734 -265.72962891 -4.94552734 -264.43359375 -5.91015625 C-189.92608641 -59.79614591 -89.48268355 -59.68412402 0 0 Z M-236 40 C-236.55333008 40.4419873 -237.10666016 40.88397461 -237.67675781 41.33935547 C-255.13864099 55.41781136 -268.83651308 71.57904658 -280 91 C-280.35690918 91.62036133 -280.71381836 92.24072266 -281.08154297 92.87988281 C-301.25628712 128.71871906 -306.26775701 173.34338239 -295.71484375 212.9609375 C-283.29078654 257.28035061 -255.37257623 293.878624 -215.26708984 316.74511719 C-190.49106169 330.45917972 -163.87035138 337.22415831 -135.625 337.25 C-134.86399994 337.25100708 -134.10299988 337.25201416 -133.31893921 337.25305176 C-121.94189627 337.24285875 -111.08739099 336.69066392 -100 334 C-98.76765625 333.7215625 -97.5353125 333.443125 -96.265625 333.15625 C-75.45621386 328.17279507 -75.45621386 328.17279507 -57 318 C-56.67 317.01 -56.34 316.02 -56 315 C-56.99 313.515 -56.99 313.515 -58 312 C-63.25837365 312.51776825 -67.3645348 313.88289866 -72.125 316.1875 C-109.40180043 333.1915711 -153.02239351 333.23232048 -191.21044922 319.18701172 C-231.46356169 303.53354397 -262.33965548 273.04401112 -279.9609375 233.87109375 C-296.10721247 196.35474897 -296.65202682 152.86121662 -282.15478516 114.77978516 C-280.28269249 110.09901831 -278.20733554 105.53129893 -276 101 C-275.45601562 99.88238281 -274.91203125 98.76476562 -274.3515625 97.61328125 C-267.40302503 84.09136209 -258.05653985 72.32535563 -248 61 C-247.41992188 60.34644531 -246.83984375 59.69289062 -246.2421875 59.01953125 C-219.71484932 30.95920619 -178.88216585 14.90185703 -140.73046875 13.796875 C-96.7264411 13.17671052 -57.12050226 27.64094464 -25 58 C-24.20078125 58.73476562 -23.4015625 59.46953125 -22.578125 60.2265625 C-1.18155313 80.60100514 11.64286956 107.7438616 19 136 C19.27336182 137.03374756 19.27336182 137.03374756 19.55224609 138.08837891 C24.78626937 159.01926401 24.48832328 186.1668727 19 207 C18.69400879 208.18988525 18.69400879 208.18988525 18.38183594 209.40380859 C14.16456483 225.40427024 8.2251063 240.01013907 -0.59375 254.01171875 C-2.14631899 257.31092785 -2.15799211 258.60783832 -1 262 C0.32 262.33 1.64 262.66 3 263 C27.29206494 233.53266906 33.46060269 190.94720384 30.7890625 154.08984375 C27.27609518 117.9488618 10.87408903 84.16526312 -14 58 C-14.50128418 57.46616699 -15.00256836 56.93233398 -15.51904297 56.38232422 C-43.73093134 26.50049448 -84.01219075 6.91369047 -125.37109375 5.6171875 C-165.55654194 4.6582494 -204.13431734 14.40670063 -236 40 Z M-249 139 C-249.30764953 141.85961511 -249.30764953 141.85961511 -249.25878906 145.25390625 C-249.26509338 146.56866943 -249.27139771 147.88343262 -249.27789307 149.23803711 C-249.2743134 150.6795261 -249.27021146 152.12101387 -249.265625 153.5625 C-249.26697168 155.03458724 -249.26891223 156.50667405 -249.27142334 157.97875977 C-249.27437449 161.06563548 -249.27007732 164.15239553 -249.26074219 167.23925781 C-249.24934756 171.20072129 -249.25590709 175.16191378 -249.26788712 179.12336731 C-249.275106 182.16363577 -249.27281768 185.20383973 -249.26763153 188.24411011 C-249.26629511 189.7049869 -249.2679425 191.1658695 -249.27259064 192.6267395 C-249.27765606 194.66652315 -249.26856979 196.70632726 -249.25878906 198.74609375 C-249.25719788 199.90810303 -249.25560669 201.0701123 -249.25396729 202.26733398 C-249.27981242 205.14594615 -249.27981242 205.14594615 -247 207 C-244.0707697 207.18768653 -241.23771603 207.25553641 -238.30859375 207.23046875 C-237.44814957 207.23001053 -236.58770538 207.22955231 -235.70118713 207.2290802 C-233.88126243 207.22605705 -232.06134033 207.21816888 -230.24145508 207.20581055 C-227.44538276 207.18755148 -224.64964134 207.18530085 -221.85351562 207.18554688 C-220.08853878 207.1806319 -218.3235642 207.17480367 -216.55859375 207.16796875 C-215.71695175 207.16685593 -214.87530975 207.1657431 -214.00816345 207.16459656 C-210.19538615 207.50420295 -210.19538615 207.50420295 -207 206 C-206.88663374 203.35713726 -206.83582239 200.74138544 -206.83203125 198.09765625 C-206.82870285 197.30475693 -206.82537445 196.5118576 -206.82194519 195.69493103 C-206.81687274 194.01448142 -206.81453696 192.33402171 -206.81469727 190.65356445 C-206.81251214 188.07681741 -206.79436391 185.50049924 -206.77539062 182.92382812 C-206.77245655 181.2942723 -206.77047185 179.66471444 -206.76953125 178.03515625 C-206.76234573 177.26115982 -206.75516022 176.48716339 -206.74775696 175.68971252 C-206.60417728 171.38083817 -206.60417728 171.38083817 -209 168 C-209.99 168 -210.98 168 -212 168 C-211.98952637 167.13197754 -211.97905273 166.26395508 -211.96826172 165.36962891 C-211.93420284 162.15300472 -211.90911233 158.93647233 -211.89013672 155.71972656 C-211.88007123 154.32679219 -211.86641766 152.93387898 -211.84912109 151.54101562 C-211.8248978 149.5404564 -211.81459186 147.53974385 -211.8046875 145.5390625 C-211.79421387 144.33459473 -211.78374023 143.13012695 -211.77294922 141.88916016 C-211.69539186 138.87158505 -211.69539186 138.87158505 -214 137 C-216.48566543 136.80051443 -218.8575075 136.72010257 -221.34375 136.734375 C-222.43109436 136.73150482 -222.43109436 136.73150482 -223.54040527 136.72857666 C-225.07365262 136.72721513 -226.6069115 136.73090936 -228.14013672 136.73925781 C-230.49082259 136.74995822 -232.84074423 136.73936192 -235.19140625 136.7265625 C-236.67968919 136.7278841 -238.16797166 136.73044651 -239.65625 136.734375 C-240.36148804 136.73032654 -241.06672607 136.72627808 -241.79333496 136.72210693 C-245.84601687 136.64722604 -245.84601687 136.64722604 -249 139 Z M-186 137 C-188.7655493 139.7655493 -188.25348601 141.38119787 -188.25878906 145.25390625 C-188.26509338 146.56866943 -188.27139771 147.88343262 -188.27789307 149.23803711 C-188.2743134 150.6795261 -188.27021146 152.12101387 -188.265625 153.5625 C-188.26697168 155.03458724 -188.26891223 156.50667405 -188.27142334 157.97875977 C-188.27437449 161.06563548 -188.27007732 164.15239553 -188.26074219 167.23925781 C-188.24934756 171.20072129 -188.25590709 175.16191378 -188.26788712 179.12336731 C-188.275106 182.16363577 -188.27281768 185.20383973 -188.26763153 188.24411011 C-188.26629511 189.7049869 -188.2679425 191.1658695 -188.27259064 192.6267395 C-188.27765606 194.66652315 -188.26856979 196.70632726 -188.25878906 198.74609375 C-188.25719788 199.90810303 -188.25560669 201.0701123 -188.25396729 202.26733398 C-188.27981242 205.14594615 -188.27981242 205.14594615 -186 207 C-183.15459858 207.19990227 -180.40862216 207.27976976 -177.5625 207.265625 C-176.3086853 207.26849518 -176.3086853 207.26849518 -175.02954102 207.27142334 C-173.26090189 207.27278536 -171.49225277 207.26908776 -169.72363281 207.26074219 C-167.01084006 207.25004275 -164.29870956 207.26063676 -161.5859375 207.2734375 C-159.8697902 207.27211591 -158.15364331 207.26955352 -156.4375 207.265625 C-155.62289307 207.26967346 -154.80828613 207.27372192 -153.96899414 207.27789307 C-149.51292215 207.42565435 -149.51292215 207.42565435 -146 205 C-146.40528901 202.21762345 -146.40528901 202.21762345 -148 200 C-150.44830426 199.91156207 -152.86820599 199.88471248 -155.31640625 199.90234375 C-156.04746078 199.9037587 -156.77851532 199.90517365 -157.53172302 199.90663147 C-159.87535632 199.91224592 -162.21889539 199.92480078 -164.5625 199.9375 C-166.14778508 199.94251314 -167.73307166 199.94707637 -169.31835938 199.95117188 C-173.2122761 199.96222003 -177.10612205 199.97949428 -181 200 C-180.99777939 199.24022858 -180.99555878 198.48045715 -180.99327087 197.69766235 C-180.97325451 190.54623969 -180.95801898 183.39483056 -180.94818783 176.24338722 C-180.94296368 172.56654289 -180.9358745 168.88972166 -180.92456055 165.21289062 C-180.91371507 161.6662104 -180.90771963 158.11955243 -180.90512276 154.5728569 C-180.90327151 153.21803817 -180.89965662 151.86322069 -180.89426994 150.50841141 C-180.88703762 148.61450635 -180.88659176 146.72057902 -180.88647461 144.82666016 C-180.88314369 143.20783432 -180.88314369 143.20783432 -180.87974548 141.55630493 C-180.82676584 139.00922654 -180.82676584 139.00922654 -182 137 C-183.32 137 -184.64 137 -186 137 Z M-127 137 C-129.35206313 140.5280947 -129.25286015 141.99011228 -129.25878906 146.16796875 C-129.26509338 147.43938721 -129.27139771 148.71080566 -129.27789307 150.02075195 C-129.27431328 151.40966938 -129.27021131 152.79858554 -129.265625 154.1875 C-129.26697226 155.6109219 -129.2689133 157.03434335 -129.27142334 158.45776367 C-129.27437175 161.44031151 -129.27008612 164.42273953 -129.26074219 167.40527344 C-129.24934771 171.22872964 -129.25590871 175.05190505 -129.26788712 178.87535095 C-129.27511339 181.81443396 -129.27281427 184.75345039 -129.26763153 187.6925354 C-129.26629716 189.10234612 -129.26793535 190.51216289 -129.27259064 191.92196655 C-129.27766816 193.89198695 -129.26855731 195.86202853 -129.25878906 197.83203125 C-129.25719788 198.95327393 -129.25560669 200.0745166 -129.25396729 201.22973633 C-129.20232447 204.21263833 -129.20232447 204.21263833 -127 207 C-124.04415729 207.30391813 -121.30159627 207.41991091 -118.34375 207.3984375 C-117.48567749 207.40130768 -116.62760498 207.40417786 -115.74353027 207.40713501 C-113.92780905 207.40917816 -112.11206594 207.40363078 -110.29638672 207.39111328 C-107.51089444 207.37506278 -104.72685319 207.39095306 -101.94140625 207.41015625 C-100.17968428 207.40817386 -98.41796323 207.40433028 -96.65625 207.3984375 C-95.81976929 207.40451019 -94.98328857 207.41058289 -94.12145996 207.4168396 C-91.53187867 207.42045365 -91.53187867 207.42045365 -88 207 C-85.64793687 203.4719053 -85.74713985 202.00988772 -85.74121094 197.83203125 C-85.73490662 196.56061279 -85.72860229 195.28919434 -85.72210693 193.97924805 C-85.72568672 192.59033062 -85.72978869 191.20141446 -85.734375 189.8125 C-85.73302774 188.3890781 -85.7310867 186.96565665 -85.72857666 185.54223633 C-85.72562825 182.55968849 -85.72991388 179.57726047 -85.73925781 176.59472656 C-85.75065229 172.77127036 -85.74409129 168.94809495 -85.73211288 165.12464905 C-85.72488661 162.18556604 -85.72718573 159.24654961 -85.73236847 156.3074646 C-85.73370284 154.89765388 -85.73206465 153.48783711 -85.72740936 152.07803345 C-85.72233184 150.10801305 -85.73144269 148.13797147 -85.74121094 146.16796875 C-85.74280212 145.04672607 -85.74439331 143.9254834 -85.74603271 142.77026367 C-85.79767553 139.78736167 -85.79767553 139.78736167 -88 137 C-90.95584271 136.69608187 -93.69840373 136.58008909 -96.65625 136.6015625 C-97.51432251 136.59869232 -98.37239502 136.59582214 -99.25646973 136.59286499 C-101.07219095 136.59082184 -102.88793406 136.59636922 -104.70361328 136.60888672 C-107.48910556 136.62493722 -110.27314681 136.60904694 -113.05859375 136.58984375 C-114.82031572 136.59182614 -116.58203677 136.59566972 -118.34375 136.6015625 C-119.18023071 136.59548981 -120.01671143 136.58941711 -120.87854004 136.5831604 C-123.46812133 136.57954635 -123.46812133 136.57954635 -127 137 Z M-65 138 C-65.09948193 140.11137901 -65.12799638 142.22612286 -65.12939453 144.33984375 C-65.13114685 145.00162628 -65.13289917 145.66340881 -65.13470459 146.34524536 C-65.13912217 148.5426899 -65.13618547 150.74005458 -65.1328125 152.9375 C-65.13348557 154.45825211 -65.13445561 155.97900412 -65.13571167 157.49975586 C-65.13718851 160.69092836 -65.13503452 163.88207292 -65.13037109 167.07324219 C-65.1246738 171.1726453 -65.12795288 175.27198296 -65.13394356 179.37138367 C-65.13754954 182.51282244 -65.13641042 185.65424558 -65.13381577 188.79568481 C-65.1331466 190.30762744 -65.13397457 191.81957146 -65.13629532 193.33151245 C-65.13882245 195.44109887 -65.13498044 197.55057787 -65.12939453 199.66015625 C-65.12859894 200.86293213 -65.12780334 202.06570801 -65.12698364 203.30493164 C-65.30687593 205.91747185 -65.30687593 205.91747185 -64 207 C-61.13905783 207.11349161 -58.30316544 207.16418492 -55.44140625 207.16796875 C-54.58191879 207.17129715 -53.72243134 207.17462555 -52.8368988 207.17805481 C-51.01521339 207.1831277 -49.19351864 207.18546302 -47.37182617 207.18530273 C-44.5778071 207.18748803 -41.78418343 207.20563644 -38.99023438 207.22460938 C-37.22395969 207.2275434 -35.45768312 207.22952814 -33.69140625 207.23046875 C-32.85178848 207.23765427 -32.01217072 207.24483978 -31.14710999 207.25224304 C-26.5975724 207.43912131 -26.5975724 207.43912131 -23 205 C-22.53896927 200.53845192 -22.67601206 196.04509362 -22.6875 191.5625 C-22.67138672 190.30888672 -22.65527344 189.05527344 -22.63867188 187.76367188 C-22.63802734 186.56419922 -22.63738281 185.36472656 -22.63671875 184.12890625 C-22.63373779 183.02619385 -22.63075684 181.92348145 -22.62768555 180.78735352 C-22.78011627 178.00855676 -22.78011627 178.00855676 -24.3059082 176.14624023 C-27.12557242 174.23842592 -30.21455034 174.487484 -33.5 174.5 C-34.51513672 174.45746094 -34.51513672 174.45746094 -35.55078125 174.4140625 C-37.79242989 174.34824594 -37.79242989 174.34824594 -41 175 C-43.03651085 177.39007268 -43.03651085 177.39007268 -44 180 C-42.22555028 182.24606427 -41.41647515 182.95081002 -38.51953125 183.29296875 C-37.17955078 183.24076172 -37.17955078 183.24076172 -35.8125 183.1875 C-34.224375 183.125625 -32.63625 183.06375 -31 183 C-31 188.61 -31 194.22 -31 200 C-39.91 200 -48.82 200 -58 200 C-58 181.52 -58 163.04 -58 144 C-49.09 144 -40.18 144 -31 144 C-31 147.3 -31 150.6 -31 154 C-30.01 155.32 -29.02 156.64 -28 158 C-26.02463255 157.65213292 -26.02463255 157.65213292 -24 157 C-22.42022292 153.84044583 -22.81552916 150.46536183 -22.8125 147 C-22.79413086 145.89398438 -22.79413086 145.89398438 -22.77539062 144.765625 C-22.77012605 142.84229942 -22.87796553 140.91945737 -23 139 C-25.6402154 136.3597846 -27.5549294 136.76197277 -31.14710999 136.74775696 C-31.98672775 136.75494247 -32.82634552 136.76212799 -33.69140625 136.76953125 C-34.98207253 136.77021858 -34.98207253 136.77021858 -36.29881287 136.7709198 C-38.11873757 136.77394295 -39.93865967 136.78183112 -41.75854492 136.79418945 C-44.55461724 136.81244852 -47.35035866 136.81469915 -50.14648438 136.81445312 C-51.91146122 136.8193681 -53.6764358 136.82519633 -55.44140625 136.83203125 C-56.28304825 136.83314407 -57.12469025 136.8342569 -57.99183655 136.83540344 C-61.80461385 136.49579705 -61.80461385 136.49579705 -65 138 Z M-210 241 C-209.59471099 243.78237655 -209.59471099 243.78237655 -208 246 C-206.14434074 246.10087284 -204.28480347 246.13077019 -202.42640686 246.13371277 C-201.21628433 246.13797775 -200.0061618 246.14224274 -198.7593689 246.14663696 C-197.40606686 246.1462874 -196.05276485 246.14582584 -194.69946289 246.14526367 C-193.28385835 246.14825359 -191.86825462 246.15165572 -190.45265198 246.15544128 C-186.59732362 246.16430257 -182.74201744 246.16662029 -178.88667989 246.16725707 C-175.6732864 246.16820441 -172.45989812 246.17188068 -169.24650663 246.17542917 C-161.66799719 246.18358182 -154.08949964 246.18601266 -146.51098633 246.18530273 C-138.68171933 246.18470172 -130.85252119 246.19525634 -123.02327162 246.2110464 C-116.31159516 246.2241024 -109.59994126 246.22948745 -102.8882522 246.22884732 C-98.87517947 246.22859176 -94.86216788 246.23147474 -90.84910774 246.24202538 C-87.07594314 246.25167384 -83.30289856 246.25180807 -79.52972984 246.24450874 C-78.14215546 246.24345883 -76.75457374 246.24584973 -75.36701202 246.2518692 C-73.4782152 246.25953456 -71.58937787 246.25376984 -69.70057678 246.24723816 C-68.11243211 246.24805531 -68.11243211 246.24805531 -66.49220371 246.24888897 C-63.82609883 246.24832529 -63.82609883 246.24832529 -62 244 C-62.40528901 241.21762345 -62.40528901 241.21762345 -64 239 C-65.85565926 238.89912716 -67.71519653 238.86922981 -69.57359314 238.86628723 C-70.78371567 238.86202225 -71.9938382 238.85775726 -73.2406311 238.85336304 C-74.59393314 238.8537126 -75.94723515 238.85417416 -77.30053711 238.85473633 C-78.71614165 238.85174641 -80.13174538 238.84834428 -81.54734802 238.84455872 C-85.40267638 238.83569743 -89.25798256 238.83337971 -93.11332011 238.83274293 C-96.3267136 238.83179559 -99.54010188 238.82811932 -102.75349337 238.82457083 C-110.33200281 238.81641818 -117.91050036 238.81398734 -125.48901367 238.81469727 C-133.31828067 238.81529828 -141.14747881 238.80474366 -148.97672838 238.7889536 C-155.68840484 238.7758976 -162.40005874 238.77051255 -169.1117478 238.77115268 C-173.12482053 238.77140824 -177.13783212 238.76852526 -181.15089226 238.75797462 C-184.92405686 238.74832616 -188.69710144 238.74819193 -192.47027016 238.75549126 C-193.85784454 238.75654117 -195.24542626 238.75415027 -196.63298798 238.7481308 C-198.5217848 238.74046544 -200.41062213 238.74623016 -202.29942322 238.75276184 C-203.35818633 238.75221707 -204.41694944 238.75167231 -205.50779629 238.75111103 C-208.17390117 238.75167471 -208.17390117 238.75167471 -210 241 Z " fill="#960782" transform="translate(392,84)"/>
<path d="M0 0 C8.91 0 17.82 0 27 0 C27 18.48 27 36.96 27 56 C18.09 56 9.18 56 0 56 C0 37.52 0 19.04 0 0 Z " fill="#89077E" transform="translate(271,228)"/>
<path d="M0 0 C8.91 0 17.82 0 27 0 C27 7.92 27 15.84 27 24 C18.09 24 9.18 24 0 24 C0 16.08 0 8.16 0 0 Z " fill="#C2048E" transform="translate(151,260)"/>
<path d="M0 0 C7.26 0 14.52 0 22 0 C22 7.92 22 15.84 22 24 C14.74 24 7.48 24 0 24 C0 16.08 0 8.16 0 0 Z " fill="#C3048E" transform="translate(151,228)"/>
</svg>
